<svg height="512" viewBox="0 0 128 128" width="512" xmlns="http://www.w3.org/2000/svg"><path d="m77.37 88.073-10.74 3.985a6.974 6.974 0 0 0 -1.4-2.717 7.235 7.235 0 0 0 -5.64-2.677h-3.71l18.42-6.832a4.391 4.391 0 0 1 5.29 1.828 3.821 3.821 0 0 1 .37.759 4.388 4.388 0 0 1 -2.59 5.654z" fill="#ffa5b1"/><path d="m87.7 84.247-22.39 13.765h-19.01a.7.7 0 0 1 -.67-.679.67.67 0 0 1 .67-.669h17.87a2.7 2.7 0 0 0 2.72-2.617 6.867 6.867 0 0 0 -.26-1.988 6.974 6.974 0 0 0 -1.4-2.717l14.36-7.682 1.29-.689a4.7 4.7 0 0 1 6.35 1.918 4.4 4.4 0 0 1 .47 1.358z" fill="#ffb4be"/><path d="m95.5 85.091a5.1 5.1 0 0 0 -6.914-1.385l-23.271 14.3h-19.015a.673.673 0 0 1 -.673-.672.673.673 0 0 1 .673-.672h17.869a2.7 2.7 0 0 0 2.717-2.616 7.29 7.29 0 0 0 -7.294-7.386h-11.184c-3.288 0-9.85-2.623-12.481-3.734-.332-.157-.667-.3-1.007-.433l-.125-.044a14.091 14.091 0 0 0 -14.159 2.591l-19.636 19.615 19.867 19.845 14.881-14.864h25.415a14.671 14.671 0 0 0 7.682-2.172l25.11-15.433a4.948 4.948 0 0 0 1.545-6.94z" fill="#ffc8d2"/><path d="m93.955 88.081-25.11 15.433a14.671 14.671 0 0 1 -7.682 2.172h-25.415l-14.881 14.865-17.89-17.871-1.977 1.975 19.867 19.845 14.881-14.864h25.415a14.671 14.671 0 0 0 7.682-2.172l25.11-15.433a4.945 4.945 0 0 0 1.945-6.189 4.927 4.927 0 0 1 -1.945 2.239z" fill="#ffb4be"/><path d="m20.867 124.5-19.867-19.845 9.818-9.806 19.867 19.844z" fill="#f0dc78"/><path d="m20.867 124.5-4.967-4.961 9.818-9.807 4.967 4.961z" fill="#dcc864"/><path d="m51.6 3.5h72.449a2.947 2.947 0 0 1 2.951 2.947v60.576a2.95 2.95 0 0 1 -2.95 2.95h-72.45a2.947 2.947 0 0 1 -2.947-2.947v-60.579a2.947 2.947 0 0 1 2.947-2.947z" fill="#f0f0e6"/><path d="m51.657 43.092a20.822 20.822 0 0 0 -3 .241v23.693a2.948 2.948 0 0 0 2.95 2.947h19.87a20.739 20.739 0 0 0 -19.82-26.881z" fill="#dcdcd2"/><path d="m127 19.811h-78.343v-13.361a2.951 2.951 0 0 1 2.954-2.95h72.436a2.951 2.951 0 0 1 2.953 2.95z" fill="#aad2ff"/><path d="m51.4 9.194a2.951 2.951 0 0 1 2.953-2.95h72.436c.064 0 .124.015.187.019a2.943 2.943 0 0 0 -2.929-2.763h-72.44a2.948 2.948 0 0 0 -2.95 2.947v13.364h2.743z" fill="#bee6ff"/><circle cx="56.315" cy="13.332" fill="#96bef0" r="2"/><circle cx="64.315" cy="13.332" fill="#96bef0" r="2"/><circle cx="72.315" cy="13.332" fill="#96bef0" r="2"/><circle cx="56.315" cy="12.542" fill="#e678a0" r="2"/><circle cx="64.315" cy="12.542" fill="#f0dc78" r="2"/><circle cx="72.315" cy="12.542" fill="#8d7bd4" r="2"/><ellipse cx="48.657" cy="60.822" fill="#ffe885" rx="20.75" ry="20.727"/><ellipse cx="48.657" cy="60.822" fill="#fffa96" rx="15.62" ry="15.602"/><path d="m54.86 64.675a4.863 4.863 0 0 1 -1.46 3.482 6.112 6.112 0 0 1 -4 1.742v2.073h-1.46v-2.072a6.685 6.685 0 0 1 -3.973-1.473 4.27 4.27 0 0 1 -1.512-3.417h3.127a2.518 2.518 0 0 0 2.358 2.509v-5.634a12.5 12.5 0 0 1 -3.281-1.1 4.139 4.139 0 0 1 -1.589-1.433 4.862 4.862 0 0 1 -.614-2.459 4.6 4.6 0 0 1 1.512-3.559 6.489 6.489 0 0 1 3.973-1.586v-2.076h1.459v2.075a6.2 6.2 0 0 1 3.7 1.394 4.79 4.79 0 0 1 1.576 3.367h-3.122a2.477 2.477 0 0 0 -.654-1.458 2.768 2.768 0 0 0 -1.5-.846v5.53a13.327 13.327 0 0 1 3.255 1.05 4.333 4.333 0 0 1 1.512 1.306 5.106 5.106 0 0 1 .693 2.585zm-8.752-9.743a2.335 2.335 0 0 0 -.68 1.767 2.169 2.169 0 0 0 .654 1.7 4.788 4.788 0 0 0 1.859.948v-5.221a3.161 3.161 0 0 0 -1.834.807zm5.139 11.676a2.528 2.528 0 0 0 .666-1.767 2.073 2.073 0 0 0 -.654-1.625 4.775 4.775 0 0 0 -1.857-.948v5.248a3.021 3.021 0 0 0 1.844-.907z" fill="#dcc864"/><path d="m113.749 24.525h6.269v35.876h-6.269z" fill="#ffe885"/><path d="m113.749 24.525h6.269v2.901h-6.269z" fill="#fffa96"/><path d="m101.629 31.491h6.269v28.91h-6.269z" fill="#ffe885"/><path d="m101.629 31.491h6.269v2.901h-6.269z" fill="#fffa96"/><path d="m89.51 38.457h6.269v21.944h-6.269z" fill="#ffe885"/><path d="m89.51 38.457h6.269v2.901h-6.269z" fill="#fffa96"/><path d="m77.39 45.422h6.269v14.978h-6.269z" fill="#ffe885"/><path d="m77.39 45.422h6.269v2.901h-6.269z" fill="#fffa96"/><path d="m17.684 53.254c0-8.035.012-8.028.012-8.028l-6.46-.006s-.008 0-.012 8.04h-6.434l9.676 16.709 9.651-16.723z" fill="#e678a0"/><path d="m25.975 27.263c0 8.035-.012 8.028-.012 8.028l6.46.006s.008 0 .012-8.04h6.434l-9.675-16.713-9.651 16.724z" fill="#b4aaf0"/><g fill="#785ae6"><path d="m124.05 70.973h-56.8a1 1 0 0 1 -.9-1.443 19.5 19.5 0 0 0 2.049-8.708 19.761 19.761 0 0 0 -19.75-19.727 1 1 0 0 1 -1-1v-33.649a3.953 3.953 0 0 1 3.958-3.946h72.443a3.953 3.953 0 0 1 3.95 3.946v60.58a3.953 3.953 0 0 1 -3.95 3.947zm-55.248-2h55.248a1.951 1.951 0 0 0 1.95-1.947v-60.58a1.951 1.951 0 0 0 -1.95-1.946h-72.443a1.951 1.951 0 0 0 -1.95 1.946v32.671a21.765 21.765 0 0 1 20.75 21.7 21.388 21.388 0 0 1 -1.607 8.156z"/><path d="m127 20.812h-60.332a1 1 0 0 1 0-2h59.332v-12.362a1.954 1.954 0 0 0 -1.953-1.95h-72.437a1.954 1.954 0 0 0 -1.953 1.95v12.362h6.228a1 1 0 0 1 0 2h-7.228a1 1 0 0 1 -1-1v-13.362a3.956 3.956 0 0 1 3.953-3.95h72.437a3.956 3.956 0 0 1 3.953 3.95v13.362a1 1 0 0 1 -1 1z"/><path d="m65.23 90.339a1 1 0 0 1 -.774-.366 6.261 6.261 0 0 0 -4.863-2.311h-3.708a1 1 0 1 1 0-2h3.708a8.247 8.247 0 0 1 5.854 2.427l12.59-6.729a3.418 3.418 0 0 0 -3.389-.595l-9.148 3.395a1 1 0 0 1 -.7-1.875l9.146-3.4a5.417 5.417 0 0 1 6.5 2.251 1 1 0 0 1 -.383 1.4l-14.363 7.685a.991.991 0 0 1 -.47.118z"/><path d="m16.385 101.41a1 1 0 0 1 -.707-.293l-5.568-5.562a1 1 0 0 1 0-1.414l9.818-9.807a15.083 15.083 0 0 1 15.212-2.821l.111.039c.387.146.747.3 1.1.471 1.994.842 8.867 3.64 12.056 3.64h11.186a8.291 8.291 0 0 1 8.294 8.4 3.56 3.56 0 0 1 -.294 1.372l20.467-12.581a6.113 6.113 0 0 1 8.273 1.688 5.949 5.949 0 0 1 -1.854 8.342 1 1 0 0 1 -1.047-1.705 3.947 3.947 0 0 0 1.23-5.537 4.1 4.1 0 0 0 -5.555-1.084l-23.272 14.302a.991.991 0 0 1 -.523.148h-19.012a1.672 1.672 0 1 1 0-3.345h17.869a1.692 1.692 0 0 0 1.717-1.629 6.291 6.291 0 0 0 -6.294-6.373h-11.183c-3.343 0-9.5-2.389-12.871-3.813-.345-.161-.656-.3-.973-.418l-.1-.036a13.07 13.07 0 0 0 -13.167 2.4l-9.063 9.056 4.857 4.85a1 1 0 0 1 -.707 1.707z"/><path d="m30.685 115.693a1 1 0 0 1 -.707-.293l-6.567-6.561a1 1 0 1 1 1.413-1.414l5.861 5.854 4.357-4.352a1 1 0 0 1 .707-.293h25.414a13.673 13.673 0 0 0 7.159-2.023l20.014-12.3a1 1 0 1 1 1.047 1.7l-20.014 12.3a15.657 15.657 0 0 1 -8.206 2.32h-25l-4.772 4.769a1 1 0 0 1 -.706.293z"/><path d="m65.312 99.009h-19.012a1.672 1.672 0 1 1 0-3.345h17.869a1.709 1.709 0 0 0 1.718-1.682 6.287 6.287 0 0 0 -1.423-4.013 1 1 0 0 1 .3-1.517l15.5-8.283a5.812 5.812 0 0 1 7.409 1.552 5.676 5.676 0 0 1 1.017 2.34 1 1 0 0 1 -.46 1.034l-22.395 13.765a.991.991 0 0 1 -.523.149zm1.388-9.324a8.3 8.3 0 0 1 1.184 4.309 3.635 3.635 0 0 1 -.308 1.446l18.966-11.655a3.753 3.753 0 0 0 -.482-.879 3.808 3.808 0 0 0 -4.855-.973z"/><path d="m20.867 125.5a1 1 0 0 1 -.707-.293l-19.867-19.845a1 1 0 0 1 0-1.414l9.817-9.807a1 1 0 0 1 1.413 0l5.569 5.559a1 1 0 1 1 -1.413 1.414l-4.861-4.855-8.4 8.394 18.452 18.432 8.4-8.394-5.859-5.854a1 1 0 1 1 1.413-1.414l6.567 6.561a1 1 0 0 1 0 1.414l-9.817 9.807a1 1 0 0 1 -.707.295z"/><path d="m48.657 82.549a21.727 21.727 0 1 1 21.75-21.728 21.763 21.763 0 0 1 -21.75 21.728zm0-41.454a19.727 19.727 0 1 0 19.75 19.727 19.761 19.761 0 0 0 -19.75-19.727z"/><path d="m48.657 77.424a1 1 0 0 1 0-2 14.611 14.611 0 1 0 -9.873-3.832 1 1 0 1 1 -1.351 1.475 16.624 16.624 0 1 1 11.224 4.357z"/><path d="m120.017 61.4h-6.269a1 1 0 0 1 -1-1v-35.876a1 1 0 0 1 1-1h6.269a1 1 0 0 1 1 1v35.876a1 1 0 0 1 -1 1zm-5.269-2h4.269v-33.876h-4.269z"/><path d="m107.9 61.4h-6.269a1 1 0 0 1 -1-1v-28.91a1 1 0 0 1 1-1h6.269a1 1 0 0 1 1 1v28.91a1 1 0 0 1 -1 1zm-5.269-2h4.269v-26.91h-4.269z"/><path d="m95.778 61.4h-6.268a1 1 0 0 1 -1-1v-21.944a1 1 0 0 1 1-1h6.269a1 1 0 0 1 1 1v21.944a1 1 0 0 1 -1.001 1zm-5.269-2h4.269v-19.944h-4.268z"/><path d="m83.659 61.4h-6.269a1 1 0 0 1 -1-1v-14.978a1 1 0 0 1 1-1h6.269a1 1 0 0 1 1 1v14.978a1 1 0 0 1 -1 1zm-5.269-2h4.269v-12.978h-4.269z"/><path d="m14.466 70.973a1 1 0 0 1 -.865-.5l-9.676-16.708a1 1 0 0 1 .864-1.5h5.436c0-3.362 0-5.12.007-6.038 0-1.249 0-2 1-2l6.461.007a1 1 0 0 1 1 1.035c0 .094-.007.861-.011 6.992h5.431a1 1 0 0 1 .866 1.5l-9.646 16.712a1 1 0 0 1 -.865.5zm-7.942-16.71 7.941 13.712 7.92-13.725h-4.7a1 1 0 0 1 -1-1c0-4.009 0-6.017.007-7.022v-.007h-4.46c0 1-.005 3-.007 7.039a1 1 0 0 1 -1 1z"/><path d="m32.423 36.3-6.461-.007a1 1 0 0 1 -1-1.037c0-.1.008-.872.011-6.99h-5.432a1 1 0 0 1 -.866-1.5l9.651-16.724a1 1 0 0 1 .865-.5 1 1 0 0 1 .865.5l9.676 16.709a1 1 0 0 1 -.864 1.5h-5.436c0 3.363 0 5.12-.007 6.038 0 1.255-.002 2.011-1.002 2.011zm-5.456-2.006h4.46c0-1 .006-3 .008-7.039a1 1 0 0 1 1-1h4.7l-7.94-13.713-7.92 13.725h4.7a1 1 0 0 1 1 1c0 4.009 0 6.017-.007 7.021z"/></g></svg>